# xmcd CD database file
#
# Track frame offsets:
#	150
#	6025
#	25325
#	42037
#	61112
#	88812
#	122715
#	144177
#	159350
#	185105
#	222532
#
# Disc length: 3199 seconds
#
# Revision: 3
# Processed by: cddbd v1.5.1PL0 Copyright (c) Steve Scherf et al.
# Submitted via: CDex 1.51
#
DISCID=900c7d0b
DTITLE=Gary Moore - After The War
DYEAR=1900
DGENRE=Hard Rock
TTITLE0=Dunluce (Part 1)
TTITLE1=After The War
TTITLE2=Speak For Yourself
TTITLE3=Livin' On Dreams
TTITLE4=Led Clones
TTITLE5=The Messiah Will Come Again
TTITLE6=Running From The Storm
TTITLE7=This Thing Called Love
TTITLE8=Ready For Love
TTITLE9=Blood Of Emeralds
TTITLE10=Dunluce (Part 2)
EXTD=
EXTT0=
EXTT1=
EXTT2=
EXTT3=
EXTT4=
EXTT5=
EXTT6=
EXTT7=
EXTT8=
EXTT9=
EXTT10=
PLAYORDER=
